<?xml version="1.0" encoding="utf-8"?>
<!-- Generator: Adobe Illustrator 18.1.0, SVG Export Plug-In . SVG Version: 6.00 Build 0)  -->
<!DOCTYPE svg PUBLIC "-//W3C//DTD SVG 1.1//EN" "http://www.w3.org/Graphics/SVG/1.1/DTD/svg11.dtd">
<svg version="1.1" id="Calque_1" xmlns="http://www.w3.org/2000/svg" xmlns:xlink="http://www.w3.org/1999/xlink" x="0px" y="0px"
	 viewBox="363 8 554 621" enable-background="new 363 8 554 621" xml:space="preserve">
<path fill="#FFFFFF" d="M640,32L390.6,176v288L640,608l249.4-144V176L640,32z M879.4,177.6L640,315.9L400.6,177.6L640,39.4
	L879.4,177.6z M397,182.9l239.8,138.5v277.4L397,460.3V182.9z M639.3,600.2h1.4l-0.7,0.4L639.3,600.2z M643.2,598.8V321.4L883,182.9
	v277.4L643.2,598.8z"/>
<path fill="#FFFFFF" d="M754.4,491.3V390.6c-10.2-3.5-16.3-14.9-16.3-30.5c0-25,15.4-54.3,34.3-65.2c5-2.9,9.9-4.4,14.6-4.4
	c13.9,0,22.9,12.5,22.9,31.8c0,15.9-6.1,33.7-16.3,48v98.4L754.4,491.3z M786.9,296.9c-3.5,0-7.4,1.2-11.4,3.5
	c-17.1,9.9-31.1,36.6-31.1,59.6c0,13.9,5.2,23.2,13.8,25l2.6,0.5v94.6L787,465v-96.8l0.6-0.8c9.7-13.1,15.7-30.4,15.7-45
	C803.4,306.9,796.9,296.9,786.9,296.9z"/>
</svg>
